<?xml version="1.0" encoding="utf-8"?>
<!-- Generator: Adobe Illustrator 23.0.2, SVG Export Plug-In . SVG Version: 6.00 Build 0)  -->
<svg version="1.1" id="Layer_1" xmlns="http://www.w3.org/2000/svg" xmlns:xlink="http://www.w3.org/1999/xlink" x="0px" y="0px"
	 viewBox="0 0 4251.97 2891.34" style="enable-background:new 0 0 4251.97 2891.34;" xml:space="preserve">
<style type="text/css">
	.st0{fill-rule:evenodd;clip-rule:evenodd;fill:#FFFFFF;}
	.st1{fill-rule:evenodd;clip-rule:evenodd;fill:#DBE283;}
	.st2{fill-rule:evenodd;clip-rule:evenodd;fill:#87AF27;}
	.st3{fill-rule:evenodd;clip-rule:evenodd;fill:#872216;stroke:#D29460;stroke-width:1.7157;stroke-miterlimit:2.6131;}
	.st4{fill-rule:evenodd;clip-rule:evenodd;fill:#E30E18;stroke:#D29460;stroke-width:1.7157;stroke-miterlimit:2.6131;}
</style>
<path class="st0" d="M1254.84,815.52h310.03c98.61,0,179.29,80.68,179.29,179.29v515.47c0,98.6-80.68,179.29-179.29,179.29h-310.03
	c-98.61,0-179.29-80.69-179.29-179.29V994.81C1075.55,896.2,1156.23,815.52,1254.84,815.52L1254.84,815.52z"/>
<path class="st1" d="M1676.92,2459.03h-534.14c-78.06,0-141.94-63.88-141.94-141.95V752.02c0-78.06,63.87-141.94,141.94-141.94
	h534.14c6.33,0,12.56,0.43,18.68,1.24V496.16c0-33.9,27.73-61.63,61.63-61.63l0,0c33.9,0,61.63,27.73,61.63,61.63v194.23
	c0,8.62-1.8,16.84-5.03,24.3c3.27,11.91,5.03,24.43,5.03,37.33v1565.07C1818.86,2395.15,1754.99,2459.03,1676.92,2459.03
	L1676.92,2459.03z M1254.84,815.52h310.02c98.61,0,179.29,80.68,179.29,179.29v515.47c0,98.6-80.68,179.29-179.29,179.29h-310.02
	c-98.61,0-179.3-80.69-179.3-179.29V994.81C1075.55,896.2,1156.23,815.52,1254.84,815.52L1254.84,815.52z"/>
<path class="st2" d="M1944.41,848.34l340.86-1.33c124.28,15.79,181.7,108.8,176.48,244.12c-9.46,136.39-86.79,203.05-215.92,214.74
	l-123.74-2.46l3.48,374.15h-181.16V848.34L1944.41,848.34z M2127.48,933.38c84.15-12.06,148.74,11.32,153.15,143.81
	c-2.79,118.28-65.66,148.22-153.15,141.94V933.38L2127.48,933.38z"/>
<path class="st2" d="M2778.33,838.05l215.81-0.99l-1.61,92.62l-169.04-0.76c-97.53,18.12-75.69,122.17-80.43,197.35l227.41-4.26
	l0.78,113.69l-220.32-2.34l-1.06,275.3c8.65,71.38,46.21,107.28,109.64,111.43l121.04-1.33l36.91,0.81l-1.16,85.95l-37.81,1.44
	l-230.04-2.45c-79.28-2.68-143.29-42-172.75-164.23l-5.64-534.11C2573.3,896.67,2645.61,842.97,2778.33,838.05L2778.33,838.05z"/>
<path class="st2" d="M3073.39,1072.45c-13.61-178.91,86.09-219.33,207.32-233.45c141.9-8.4,231,50.77,248.39,201.74l-167.5-0.45
	c-10.62-76.15-69.87-105.42-124.07-69.18c-77.27,94.53,163.88,260.89,236.16,322.59c124.98,98.84,103.82,372.8-88.67,423.59
	l-117.38,4.17c-119.21,2.81-190.18-72.5-210.72-212.1l168.77-2.98c9.19,59.62,34.63,96.68,88.64,94.04
	c84.03-15.96,107.15-89.95,47.38-184.35C3236.57,1309.82,3088.43,1210.15,3073.39,1072.45L3073.39,1072.45z"/>
<path class="st2" d="M106.3,810.99h177.39l1.87,55.09c107.2-46.32,188.03-79.05,272.71-2.8c151.4-71.49,265.9-63.35,322.67,69.35
	l7.9,744.94H709.96V967c-13.24-60.83-61.41-71.23-119.53-67.23v777.8H407.4V967c-13.24-60.83-61.41-71.23-119.52-67.23v777.8H106.3
	V810.99L106.3,810.99z"/>
<path class="st2" d="M3628.58,1699.35h183.97v-457.57h153.14v457.57h178.36v-653.67c-3.58-132.85-105.69-216.1-250.26-216.65
	c-164.95-1.45-259.01,76.77-265.21,209.17V1699.35L3628.58,1699.35z M3812.55,999c6.07-48.84,21.94-68.51,75.64-73.77
	c54.44,1.41,73.81,32.82,77.51,81.24v132.6h-153.14V999L3812.55,999z"/>
<path class="st3" d="M1218.41,1164.29c30.67,71.74,72.42,104.72,123.02,106.74c-78.89,58.93-164.23,94.74-253.2,117.61
	c-55.87-3.58-109.3-17.8-161.17-31.99C1058.11,1330.78,1155.84,1267.35,1218.41,1164.29L1218.41,1164.29z"/>
<path class="st4" d="M1562.06,979.39l369.79,186.76c-188.33,247.79-505.91,254.31-844.16,222.25
	C1313.82,1332.68,1470.39,1194.49,1562.06,979.39L1562.06,979.39z"/>
</svg>
